<svg width="30" height="30" viewBox="0 0 30 30" fill="none" xmlns="http://www.w3.org/2000/svg">
<rect x="30" y="30" width="30" height="30" rx="15" transform="rotate(-180 30 30)" fill="#4C4C4C" fill-opacity="0.7"/>
<path d="M18.875 21.125L18.875 9.87501C18.8746 9.76111 18.8432 9.64946 18.7841 9.55209C18.7251 9.45471 18.6405 9.37529 18.5397 9.32239C18.4388 9.26948 18.3254 9.24508 18.2117 9.25182C18.098 9.25856 17.9883 9.29618 17.8944 9.36063L9.76938 14.9856C9.43251 15.2188 9.43251 15.78 9.76938 16.0138L17.8944 21.6388C17.9881 21.7039 18.0979 21.742 18.2118 21.7492C18.3256 21.7563 18.4393 21.732 18.5404 21.6791C18.6415 21.6261 18.7261 21.5465 18.7851 21.4488C18.8441 21.3511 18.8752 21.2391 18.875 21.125Z" fill="white"/>
</svg>
