<svg width="30" height="30" viewBox="0 0 30 30" fill="none" xmlns="http://www.w3.org/2000/svg">
<rect width="30" height="30" rx="15" fill="#4C4C4C" fill-opacity="0.7"/>
<path d="M11.125 8.87499L11.125 20.125C11.1254 20.2389 11.1568 20.3505 11.2159 20.4479C11.2749 20.5453 11.3595 20.6247 11.4603 20.6776C11.5612 20.7305 11.6746 20.7549 11.7883 20.7482C11.902 20.7414 12.0117 20.7038 12.1056 20.6394L20.2306 15.0144C20.5675 14.7812 20.5675 14.22 20.2306 13.9862L12.1056 8.36124C12.0119 8.29613 11.9021 8.25795 11.7882 8.25085C11.6744 8.24374 11.5607 8.26798 11.4596 8.32094C11.3585 8.37389 11.2739 8.45354 11.2149 8.55122C11.1559 8.6489 11.1248 8.76088 11.125 8.87499Z" fill="white"/>
</svg>
