<svg width="423" height="99" viewBox="0 0 423 99" fill="none" xmlns="http://www.w3.org/2000/svg">
<g filter="url(#filter0_b_1_22)">
<path d="M0.0320129 1.89401H21.452L41.234 60.106L38.336 58.846L55.598 15.88L64.04 40.954L37.328 98.284L0.0320129 1.89401ZM46.526 1.89401H64.67L87.476 58.216L84.2 57.712L101.21 1.89401H120.866L85.082 98.032L46.526 1.89401Z" fill="white" fill-opacity="0.5"/>
<path d="M123.747 47.758C123.747 41.374 124.965 35.326 127.401 29.614C129.837 23.902 133.197 18.862 137.481 14.494C141.849 10.042 146.889 6.55601 152.601 4.03601C158.313 1.51601 164.445 0.256012 170.997 0.256012C177.465 0.256012 183.555 1.51601 189.267 4.03601C194.979 6.55601 200.019 10.042 204.387 14.494C208.839 18.862 212.283 23.902 214.719 29.614C217.239 35.326 218.499 41.374 218.499 47.758C218.499 54.31 217.239 60.442 214.719 66.154C212.283 71.866 208.839 76.906 204.387 81.274C200.019 85.558 194.979 88.918 189.267 91.354C183.555 93.79 177.465 95.008 170.997 95.008C164.445 95.008 158.313 93.79 152.601 91.354C146.889 88.918 141.849 85.558 137.481 81.274C133.197 76.906 129.837 71.866 127.401 66.154C124.965 60.442 123.747 54.31 123.747 47.758ZM142.647 47.758C142.647 51.874 143.361 55.738 144.789 59.35C146.301 62.878 148.359 66.028 150.963 68.8C153.651 71.488 156.717 73.588 160.161 75.1C163.689 76.612 167.511 77.368 171.627 77.368C175.575 77.368 179.229 76.612 182.589 75.1C186.033 73.588 189.015 71.488 191.535 68.8C194.055 66.028 196.029 62.878 197.457 59.35C198.885 55.738 199.599 51.874 199.599 47.758C199.599 43.558 198.843 39.652 197.331 36.04C195.903 32.428 193.887 29.278 191.283 26.59C188.763 23.818 185.781 21.676 182.337 20.164C178.893 18.652 175.155 17.896 171.123 17.896C167.091 17.896 163.353 18.652 159.909 20.164C156.465 21.676 153.441 23.818 150.837 26.59C148.233 29.278 146.217 32.428 144.789 36.04C143.361 39.652 142.647 43.558 142.647 47.758Z" fill="white" fill-opacity="0.5"/>
<path d="M231.044 47.758C231.044 41.374 232.262 35.326 234.698 29.614C237.134 23.902 240.494 18.862 244.778 14.494C249.146 10.042 254.186 6.55601 259.898 4.03601C265.61 1.51601 271.742 0.256012 278.294 0.256012C284.762 0.256012 290.852 1.51601 296.564 4.03601C302.276 6.55601 307.316 10.042 311.684 14.494C316.136 18.862 319.58 23.902 322.016 29.614C324.536 35.326 325.796 41.374 325.796 47.758C325.796 54.31 324.536 60.442 322.016 66.154C319.58 71.866 316.136 76.906 311.684 81.274C307.316 85.558 302.276 88.918 296.564 91.354C290.852 93.79 284.762 95.008 278.294 95.008C271.742 95.008 265.61 93.79 259.898 91.354C254.186 88.918 249.146 85.558 244.778 81.274C240.494 76.906 237.134 71.866 234.698 66.154C232.262 60.442 231.044 54.31 231.044 47.758ZM249.944 47.758C249.944 51.874 250.658 55.738 252.086 59.35C253.598 62.878 255.656 66.028 258.26 68.8C260.948 71.488 264.014 73.588 267.458 75.1C270.986 76.612 274.808 77.368 278.924 77.368C282.872 77.368 286.526 76.612 289.886 75.1C293.33 73.588 296.312 71.488 298.832 68.8C301.352 66.028 303.326 62.878 304.754 59.35C306.182 55.738 306.896 51.874 306.896 47.758C306.896 43.558 306.14 39.652 304.628 36.04C303.2 32.428 301.184 29.278 298.58 26.59C296.06 23.818 293.078 21.676 289.634 20.164C286.19 18.652 282.452 17.896 278.42 17.896C274.388 17.896 270.65 18.652 267.206 20.164C263.762 21.676 260.738 23.818 258.134 26.59C255.53 29.278 253.514 32.428 252.086 36.04C250.658 39.652 249.944 43.558 249.944 47.758Z" fill="white" fill-opacity="0.5"/>
<path d="M344.011 94V1.26401H371.731C381.055 1.26401 388.993 2.65001 395.545 5.42201C402.097 8.19401 407.347 11.89 411.295 16.51C415.327 21.13 418.267 26.296 420.115 32.008C421.963 37.72 422.887 43.474 422.887 49.27C422.887 56.158 421.627 62.374 419.107 67.918C416.671 73.378 413.311 78.082 409.027 82.03C404.743 85.894 399.787 88.876 394.159 90.976C388.531 92.992 382.567 94 376.267 94H344.011ZM362.281 76.36H373.117C377.737 76.36 381.937 75.772 385.717 74.596C389.497 73.336 392.731 71.53 395.419 69.178C398.191 66.826 400.291 63.886 401.719 60.358C403.231 56.746 403.987 52.63 403.987 48.01C403.987 41.962 402.979 37.048 400.963 33.268C399.031 29.404 396.595 26.422 393.655 24.322C390.799 22.222 387.859 20.794 384.835 20.038C381.811 19.198 379.249 18.778 377.149 18.778H362.281V76.36Z" fill="white" fill-opacity="0.5"/>
</g>
<defs>
<filter id="filter0_b_1_22" x="-9.96799" y="-9.74399" width="442.855" height="118.028" filterUnits="userSpaceOnUse" color-interpolation-filters="sRGB">
<feFlood flood-opacity="0" result="BackgroundImageFix"/>
<feGaussianBlur in="BackgroundImageFix" stdDeviation="5"/>
<feComposite in2="SourceAlpha" operator="in" result="effect1_backgroundBlur_1_22"/>
<feBlend mode="normal" in="SourceGraphic" in2="effect1_backgroundBlur_1_22" result="shape"/>
</filter>
</defs>
</svg>
